<svg width="0" height="0" class="hidden">
  <symbol fill="none" xmlns="http://www.w3.org/2000/svg" viewBox="0 0 30 29" id="Home">
    <path d="M16.0294 0.689319C15.3725 0.26908 14.5311 0.26908 13.8741 0.689319L1.25655 8.75997C0.681906 9.12753 0.334229 9.76264 0.334229 10.4448V26.0498C0.334229 27.1543 1.22966 28.0498 2.33423 28.0498H7.47019C8.57476 28.0498 9.47019 27.1543 9.47019 26.0498V19.1415C9.47019 18.037 10.3656 17.1415 11.4702 17.1415H18.4334C19.5379 17.1415 20.4334 18.037 20.4334 19.1415V26.0498C20.4334 27.1543 21.3288 28.0498 22.4334 28.0498H27.5693C28.6739 28.0498 29.5693 27.1543 29.5693 26.0498V10.4448C29.5693 9.76264 29.2216 9.12753 28.647 8.75997L16.0294 0.689319Z" stroke-width="1.5" fill="var(--nav-menu-fill-color)" stroke="var(--nav-menu-stroke-color)"></path>
  </symbol>
  <symbol fill="none" xmlns="http://www.w3.org/2000/svg" viewBox="0 0 35 33" id="profile">
    <path d="M17.3204 18.6498H17.0774C13.8335 18.5551 11.404 16.1624 11.404 13.2154C11.404 10.2144 13.9907 7.76758 17.1632 7.76758C20.3357 7.76758 22.9224 10.2144 22.9224 13.2154C22.9253 14.6274 22.3463 15.9848 21.3084 16.9995C20.2704 18.0142 18.8552 18.6062 17.3633 18.6498H17.3204ZM17.1489 9.7818C15.1482 9.7818 13.5333 11.3229 13.5333 13.2019C13.529 14.087 13.8891 14.939 14.5373 15.5774C15.1855 16.2158 16.0709 16.5904 17.006 16.622C17.115 16.6078 17.2256 16.6078 17.3347 16.622C18.2604 16.5753 19.132 16.1947 19.77 15.5585C20.408 14.9223 20.7639 14.0789 20.7645 13.2019C20.7645 11.3229 19.1496 9.7818 17.1489 9.7818ZM17.1489 31.1136C13.3047 31.1136 9.63198 29.7618 6.78812 27.3015C6.66511 27.1944 6.57009 27.0617 6.51056 26.9139C6.45104 26.7661 6.42865 26.6072 6.44515 26.4498C6.63093 24.8411 7.68844 23.3406 9.4462 22.2321C13.7048 19.5555 20.6073 19.5555 24.8516 22.2321C26.6094 23.3541 27.6669 24.8411 27.8527 26.4498C27.8955 26.7742 27.7669 27.0852 27.5097 27.3015C24.6833 29.7556 20.9855 31.1162 17.1489 31.1136ZM8.68879 26.1794C11.06 28.0588 14.0554 29.0879 17.1489 29.0859C20.25 29.0859 23.2368 28.0585 25.609 26.1794C25.3518 25.3548 24.6658 24.5573 23.6512 23.9084C20.1357 21.6914 14.1764 21.6914 10.6323 23.9084C9.61769 24.5573 8.94602 25.3548 8.68879 26.1794Z" fill="var(--nav-menu-stroke-color)"></path>
    <path d="M17.1488 31.1136C8.67445 31.1136 1.78632 24.5978 1.78632 16.5815C1.78632 8.56515 8.67445 2.04935 17.1488 2.04935C25.6233 2.04935 32.5114 8.56515 32.5114 16.5815C32.5114 24.5978 25.6233 31.1136 17.1488 31.1136ZM17.1488 4.07709C9.86058 4.07709 3.92993 9.68716 3.92993 16.5815C3.92993 23.4758 9.86058 29.0859 17.1488 29.0859C24.4371 29.0859 30.3678 23.4758 30.3678 16.5815C30.3678 9.68716 24.4371 4.07709 17.1488 4.07709Z" fill="var(--nav-menu-stroke-color)"></path>
  </symbol>
  <symbol fill="none" xmlns="http://www.w3.org/2000/svg" viewBox="0 0 30 28" id="Trend">
    <path d="M27.191 26.5011H6.17975C3.62133 26.5011 1.54492 24.5544 1.54492 22.1559V2.45787C1.54492 1.9828 1.96515 1.58884 2.47189 1.58884C2.97863 1.58884 3.39885 1.9828 3.39885 2.45787V22.1559C3.39885 23.5927 4.64717 24.763 6.17975 24.763H27.191C27.6977 24.763 28.118 25.157 28.118 25.632C28.118 26.1071 27.6977 26.5011 27.191 26.5011Z" fill="var(--nav-menu-stroke-color)"></path>
    <path d="M6.17978 20.7075C5.96967 20.7075 5.7472 20.638 5.57416 20.4989C5.38856 20.3476 5.27409 20.1338 5.25558 19.9039C5.23707 19.6739 5.31601 19.4464 5.47528 19.2707L11.1483 13.06C11.7663 12.388 12.6562 11.9824 13.5955 11.9477C14.5348 11.9245 15.4618 12.2489 16.1292 12.8746L17.3034 13.9754C17.6124 14.2651 18.0202 14.4041 18.4528 14.4041C18.8854 14.3925 19.2809 14.2072 19.5652 13.8943L25.2382 7.68363C25.5719 7.32443 26.1528 7.27808 26.5483 7.59093C26.9315 7.90378 26.9809 8.44837 26.6472 8.81916L20.9742 15.0298C20.3562 15.7019 19.4663 16.1074 18.527 16.1422C17.5876 16.1654 16.6607 15.8409 15.9933 15.2152L14.8315 14.1145C14.5225 13.8248 14.1146 13.6741 13.682 13.6857C13.2494 13.6973 12.8539 13.8827 12.5697 14.1956L6.89663 20.4062C6.80544 20.4997 6.69478 20.5747 6.57149 20.6265C6.4482 20.6783 6.31488 20.7059 6.17978 20.7075Z" fill="var(--nav-menu-stroke-color)"></path>
  </symbol>
  <symbol fill="none" xmlns="http://www.w3.org/2000/svg" viewBox="0 0 30 28" id="Cart">
    <path d="M9.39321 9.02778V7.90383C9.39321 5.29674 11.6303 2.736 14.4112 2.49267C15.1839 2.4215 15.9639 2.50278 16.701 2.73129C17.4382 2.9598 18.1162 3.33047 18.6913 3.81944C19.2664 4.30841 19.726 4.90486 20.0404 5.57039C20.3548 6.23592 20.5171 6.9558 20.5168 7.68368V9.2827M11.2471 25.6321H18.6629C23.6314 25.6321 24.5213 23.7665 24.7808 21.4955L25.7078 14.5432C26.0415 11.716 25.1764 9.41015 19.8988 9.41015H10.0112C4.73366 9.41015 3.86849 11.716 4.20219 14.5432L5.12916 21.4955C5.38871 23.7665 6.2786 25.6321 11.2471 25.6321Z"  stroke="var(--nav-menu-stroke-color)" strokeWidth="1.5" strokeMiterlimit="10" strokeLinecap="round" strokeLinejoin="round"></path>
  </symbol>
  <symbol fill="none" xmlns="http://www.w3.org/2000/svg" viewBox="0 0 30 28" id="Favourite">
    <path d="M15.7666 26.8238C15.2938 26.9988 14.5152 26.9988 14.0424 26.8238C10.0101 25.3803 1 19.3581 1 9.15105C1 4.64537 4.46222 1 8.7309 1C11.2615 1 13.5001 2.28317 14.9045 4.26625C15.6189 3.25412 16.5494 2.4315 17.6214 1.86431C18.6935 1.29711 19.8773 1.00111 21.0781 1C25.3468 1 28.809 4.64537 28.809 9.15105C28.809 19.3581 19.7989 25.3803 15.7666 26.8238Z" fill="var(--nav-menu-fill-color)" stroke="var(--nav-menu-stroke-color)" strokeWidth="1.5" strokeLinecap="round" strokeLinejoin="round"></path>
  </symbol>
</svg>